<svg xmlns="http://www.w3.org/2000/svg" viewBox="0 0 600 115.78"><g id="Ebene_2" data-name="Ebene 2"><g id="Ebene_1-2" data-name="Ebene 1"><polygon points="204.39 47.35 81.29 0 81.29 31.27 123.1 47.35 81.29 63.43 81.29 94.7 204.39 47.35"/><polygon points="0 0 0 94.7 81.29 63.43 81.29 31.27 0 0"/><path d="M221.6,92V2.68h12.87L268,80.51,302.27,2.68h12.25V92h-8V9.49h-.25L272.08,92h-8L229.89,9.86h-.25V92Z"/><path d="M369.61,48.22c-.74-10.15-5.94-13.37-14.72-13.37-7.8,0-14.23,2.36-15.22,10.77h-7.92C333.6,32.88,343.13,28.05,355,28.05c13.73,0,22.27,6.31,22,20.54V78c-.12,4.82.38,9.77.62,14H370l-.25-9.16h-.24l-.37.87c-2.73,5.2-11,10.15-19.43,10.15C338.18,93.88,329,86.82,329,74.7c0-8.42,5.07-14.85,12.49-17.94,8.29-3.59,19.06-2.36,28.09-2.85ZM351.05,87.07c16.21,0,19.3-13.36,18.56-26.35-10.52.37-32.54-1.61-32.54,14C337.07,83.11,343.5,87.07,351.05,87.07Z"/><path d="M397.45,36.71H385.08v-6.8h12.37V16.67l7.43-3.22V29.91H419v6.8h-14.1V78.28c-.13,5.7,2.84,8.79,8.54,8.79a21.82,21.82,0,0,0,6.43-.74v6.43a30.83,30.83,0,0,1-7.55,1.12c-15.71,0-14.85-10-14.85-18.44Z"/><path d="M467.07,49c-.62-9.53-6.68-14.11-16.95-14.11-11.39,0-18.44,11.88-18.44,26s7.05,26.23,18.44,26.23c9.65,0,16.33-5.94,16.95-14.48h8c-2,14.23-10.15,21.29-24.25,21.29-18.56,0-27.22-16-27.22-32.92s9.28-32.91,27.71-32.91c12.75,0,23.14,7.67,23.76,20.91Z"/><path d="M494.12,39.31h.25a21.36,21.36,0,0,1,19.42-11.26c20.29,0,21.9,17.94,21.9,25.12V92h-7.42V51.93c0-10.76-6.19-17.08-16.33-17.08-12.25,0-17.82,10.27-17.82,21.41V92h-7.43V2.68h7.43Z"/><path d="M550.26,29.91l20.91,52,20.79-52h8l-34.27,85.87h-8.17L567,92,541.23,29.91Z"/></g></g></svg>